<mxfile host="app.diagrams.net" modified="2024-04-26T16:22:43.921Z" agent="Mozilla/5.0 (Windows NT 10.0; Win64; x64) AppleWebKit/537.36 (KHTML, like Gecko) Chrome/124.0.0.0 Safari/537.36" etag="FeqXqNOCzi8F0YH6a3m7" version="24.3.0" type="device">
  <diagram name="PÃ¡gina-1" id="xO-m232qHy2haF3cP05o">
    <mxGraphModel dx="2059" dy="1060" grid="1" gridSize="10" guides="1" tooltips="1" connect="1" arrows="1" fold="1" page="1" pageScale="1" pageWidth="827" pageHeight="1169" math="0" shadow="0">
      <root>
        <mxCell id="0" />
        <mxCell id="1" parent="0" />
        <mxCell id="Y0aXFFnvP50x7_9zL7dY-65" value="" style="rounded=0;whiteSpace=wrap;html=1;rotation=-90;fillColor=#b1ddf0;strokeColor=#10739e;" vertex="1" parent="1">
          <mxGeometry x="-15" y="215" width="770" height="340" as="geometry" />
        </mxCell>
        <mxCell id="PfmC7XR5RCS_PkKDe063-81" value="&lt;p style=&quot;margin:0px;margin-top:4px;text-align:center;&quot;&gt;&lt;b&gt;Gun&lt;/b&gt;&lt;/p&gt;&lt;hr size=&quot;1&quot; style=&quot;border-style:solid;&quot;&gt;&amp;nbsp;- type: string&lt;br&gt;&lt;p style=&quot;margin:0px;margin-left:4px;&quot;&gt;- bulletsInChamber: int&lt;br&gt;&lt;/p&gt;&lt;p style=&quot;margin:0px;margin-left:4px;&quot;&gt;- chamberCapacity: int&lt;/p&gt;&lt;p style=&quot;margin:0px;margin-left:4px;&quot;&gt;- isTriggered: bool&lt;br&gt;&lt;/p&gt;&lt;hr size=&quot;1&quot; style=&quot;border-style:solid;&quot;&gt;&lt;p style=&quot;margin:0px;margin-left:4px;&quot;&gt;+ shoot()&lt;/p&gt;&lt;p style=&quot;margin:0px;margin-left:4px;&quot;&gt;+ reload()&lt;/p&gt;&lt;p style=&quot;margin:0px;margin-left:4px;&quot;&gt;+ getIsTriggered(bool)&lt;/p&gt;" style="verticalAlign=top;align=left;overflow=fill;html=1;whiteSpace=wrap;" parent="1" vertex="1">
          <mxGeometry width="160" height="150" as="geometry" />
        </mxCell>
        <mxCell id="Y0aXFFnvP50x7_9zL7dY-4" value="" style="edgeStyle=orthogonalEdgeStyle;rounded=0;orthogonalLoop=1;jettySize=auto;html=1;" edge="1" parent="1" source="WPGE28UYhvy6tjoEXF4L-3" target="Y0aXFFnvP50x7_9zL7dY-3">
          <mxGeometry relative="1" as="geometry" />
        </mxCell>
        <mxCell id="WPGE28UYhvy6tjoEXF4L-3" value="shoot()" style="ellipse;whiteSpace=wrap;html=1;" parent="1" vertex="1">
          <mxGeometry x="260" width="120" height="80" as="geometry" />
        </mxCell>
        <mxCell id="WPGE28UYhvy6tjoEXF4L-4" value="end" style="ellipse;whiteSpace=wrap;html=1;" parent="1" vertex="1">
          <mxGeometry x="260" y="680" width="120" height="80" as="geometry" />
        </mxCell>
        <mxCell id="WPGE28UYhvy6tjoEXF4L-6" value="bulletsInChamber &amp;lt;= 0" style="rhombus;whiteSpace=wrap;html=1;" parent="1" vertex="1">
          <mxGeometry x="240" y="220" width="160" height="80" as="geometry" />
        </mxCell>
        <mxCell id="WPGE28UYhvy6tjoEXF4L-11" style="edgeStyle=orthogonalEdgeStyle;rounded=0;orthogonalLoop=1;jettySize=auto;html=1;exitX=0;exitY=0.5;exitDx=0;exitDy=0;entryX=0;entryY=0.5;entryDx=0;entryDy=0;" parent="1" source="WPGE28UYhvy6tjoEXF4L-6" target="WPGE28UYhvy6tjoEXF4L-4" edge="1">
          <mxGeometry relative="1" as="geometry">
            <mxPoint x="170" y="210" as="sourcePoint" />
            <Array as="points">
              <mxPoint x="213" y="260" />
              <mxPoint x="213" y="720" />
            </Array>
            <mxPoint x="210" y="480" as="targetPoint" />
          </mxGeometry>
        </mxCell>
        <mxCell id="Y0aXFFnvP50x7_9zL7dY-6" value="True" style="edgeLabel;html=1;align=center;verticalAlign=middle;resizable=0;points=[];" vertex="1" connectable="0" parent="WPGE28UYhvy6tjoEXF4L-11">
          <mxGeometry x="-0.643" y="1" relative="1" as="geometry">
            <mxPoint y="-39" as="offset" />
          </mxGeometry>
        </mxCell>
        <mxCell id="WPGE28UYhvy6tjoEXF4L-12" style="edgeStyle=orthogonalEdgeStyle;rounded=0;orthogonalLoop=1;jettySize=auto;html=1;entryX=0.5;entryY=0;entryDx=0;entryDy=0;exitX=1;exitY=0.5;exitDx=0;exitDy=0;" parent="1" source="WPGE28UYhvy6tjoEXF4L-6" target="Y0aXFFnvP50x7_9zL7dY-8" edge="1">
          <mxGeometry relative="1" as="geometry">
            <mxPoint x="497" y="258" as="sourcePoint" />
            <mxPoint x="420" y="330" as="targetPoint" />
            <Array as="points">
              <mxPoint x="420" y="260" />
            </Array>
          </mxGeometry>
        </mxCell>
        <mxCell id="Y0aXFFnvP50x7_9zL7dY-7" value="False" style="edgeLabel;html=1;align=center;verticalAlign=middle;resizable=0;points=[];" vertex="1" connectable="0" parent="WPGE28UYhvy6tjoEXF4L-12">
          <mxGeometry x="-0.2063" relative="1" as="geometry">
            <mxPoint y="20" as="offset" />
          </mxGeometry>
        </mxCell>
        <mxCell id="Y0aXFFnvP50x7_9zL7dY-5" style="edgeStyle=orthogonalEdgeStyle;rounded=0;orthogonalLoop=1;jettySize=auto;html=1;entryX=0.5;entryY=0;entryDx=0;entryDy=0;" edge="1" parent="1" source="Y0aXFFnvP50x7_9zL7dY-3" target="WPGE28UYhvy6tjoEXF4L-6">
          <mxGeometry relative="1" as="geometry" />
        </mxCell>
        <mxCell id="Y0aXFFnvP50x7_9zL7dY-3" value="getBulletsInChamber" style="shape=parallelogram;perimeter=parallelogramPerimeter;whiteSpace=wrap;html=1;fixedSize=1;" vertex="1" parent="1">
          <mxGeometry x="250" y="120" width="140" height="60" as="geometry" />
        </mxCell>
        <mxCell id="Y0aXFFnvP50x7_9zL7dY-10" style="edgeStyle=orthogonalEdgeStyle;rounded=0;orthogonalLoop=1;jettySize=auto;html=1;entryX=0.5;entryY=0;entryDx=0;entryDy=0;" edge="1" parent="1" source="Y0aXFFnvP50x7_9zL7dY-8" target="Y0aXFFnvP50x7_9zL7dY-9">
          <mxGeometry relative="1" as="geometry" />
        </mxCell>
        <mxCell id="Y0aXFFnvP50x7_9zL7dY-8" value="result = bulletsInChamber - 1" style="rounded=0;whiteSpace=wrap;html=1;" vertex="1" parent="1">
          <mxGeometry x="360" y="340" width="120" height="60" as="geometry" />
        </mxCell>
        <mxCell id="Y0aXFFnvP50x7_9zL7dY-12" style="edgeStyle=orthogonalEdgeStyle;rounded=0;orthogonalLoop=1;jettySize=auto;html=1;entryX=0.5;entryY=0;entryDx=0;entryDy=0;" edge="1" parent="1" source="Y0aXFFnvP50x7_9zL7dY-9" target="Y0aXFFnvP50x7_9zL7dY-11">
          <mxGeometry relative="1" as="geometry" />
        </mxCell>
        <mxCell id="Y0aXFFnvP50x7_9zL7dY-9" value="bulletsInChamber = result" style="shape=document;whiteSpace=wrap;html=1;boundedLbl=1;" vertex="1" parent="1">
          <mxGeometry x="360" y="440" width="120" height="80" as="geometry" />
        </mxCell>
        <mxCell id="Y0aXFFnvP50x7_9zL7dY-13" style="edgeStyle=orthogonalEdgeStyle;rounded=0;orthogonalLoop=1;jettySize=auto;html=1;exitX=0;exitY=0.5;exitDx=0;exitDy=0;entryX=0.5;entryY=0;entryDx=0;entryDy=0;" edge="1" parent="1" source="Y0aXFFnvP50x7_9zL7dY-11" target="WPGE28UYhvy6tjoEXF4L-4">
          <mxGeometry relative="1" as="geometry" />
        </mxCell>
        <mxCell id="Y0aXFFnvP50x7_9zL7dY-14" value="True" style="edgeLabel;html=1;align=center;verticalAlign=middle;resizable=0;points=[];" vertex="1" connectable="0" parent="Y0aXFFnvP50x7_9zL7dY-13">
          <mxGeometry x="-0.3994" relative="1" as="geometry">
            <mxPoint y="30" as="offset" />
          </mxGeometry>
        </mxCell>
        <mxCell id="Y0aXFFnvP50x7_9zL7dY-15" style="edgeStyle=orthogonalEdgeStyle;rounded=0;orthogonalLoop=1;jettySize=auto;html=1;entryX=1;entryY=0.5;entryDx=0;entryDy=0;" edge="1" parent="1" source="Y0aXFFnvP50x7_9zL7dY-11" target="Y0aXFFnvP50x7_9zL7dY-8">
          <mxGeometry relative="1" as="geometry">
            <Array as="points">
              <mxPoint x="520" y="600" />
              <mxPoint x="520" y="370" />
            </Array>
          </mxGeometry>
        </mxCell>
        <mxCell id="Y0aXFFnvP50x7_9zL7dY-16" value="False" style="edgeLabel;html=1;align=center;verticalAlign=middle;resizable=0;points=[];" vertex="1" connectable="0" parent="Y0aXFFnvP50x7_9zL7dY-15">
          <mxGeometry x="-0.6898" y="-1" relative="1" as="geometry">
            <mxPoint y="-15" as="offset" />
          </mxGeometry>
        </mxCell>
        <mxCell id="Y0aXFFnvP50x7_9zL7dY-11" value="bulletsInChamber &amp;lt;= 0" style="rhombus;whiteSpace=wrap;html=1;" vertex="1" parent="1">
          <mxGeometry x="340" y="560" width="160" height="80" as="geometry" />
        </mxCell>
        <mxCell id="Y0aXFFnvP50x7_9zL7dY-17" value="" style="edgeStyle=orthogonalEdgeStyle;rounded=0;orthogonalLoop=1;jettySize=auto;html=1;" edge="1" parent="1" source="Y0aXFFnvP50x7_9zL7dY-18" target="Y0aXFFnvP50x7_9zL7dY-23">
          <mxGeometry relative="1" as="geometry" />
        </mxCell>
        <mxCell id="Y0aXFFnvP50x7_9zL7dY-18" value="reload()" style="ellipse;whiteSpace=wrap;html=1;" vertex="1" parent="1">
          <mxGeometry x="613.0000000000001" width="120" height="80" as="geometry" />
        </mxCell>
        <mxCell id="Y0aXFFnvP50x7_9zL7dY-25" value="" style="edgeStyle=orthogonalEdgeStyle;rounded=0;orthogonalLoop=1;jettySize=auto;html=1;" edge="1" parent="1" source="Y0aXFFnvP50x7_9zL7dY-23" target="Y0aXFFnvP50x7_9zL7dY-24">
          <mxGeometry relative="1" as="geometry" />
        </mxCell>
        <mxCell id="Y0aXFFnvP50x7_9zL7dY-23" value="getBulletsInChamber" style="shape=parallelogram;perimeter=parallelogramPerimeter;whiteSpace=wrap;html=1;fixedSize=1;" vertex="1" parent="1">
          <mxGeometry x="603.0000000000001" y="120" width="140" height="60" as="geometry" />
        </mxCell>
        <mxCell id="Y0aXFFnvP50x7_9zL7dY-27" value="" style="edgeStyle=orthogonalEdgeStyle;rounded=0;orthogonalLoop=1;jettySize=auto;html=1;entryX=0.5;entryY=0;entryDx=0;entryDy=0;" edge="1" parent="1" source="Y0aXFFnvP50x7_9zL7dY-24" target="Y0aXFFnvP50x7_9zL7dY-26">
          <mxGeometry relative="1" as="geometry" />
        </mxCell>
        <mxCell id="Y0aXFFnvP50x7_9zL7dY-24" value="getChamberCapacity" style="shape=parallelogram;perimeter=parallelogramPerimeter;whiteSpace=wrap;html=1;fixedSize=1;" vertex="1" parent="1">
          <mxGeometry x="603.0000000000001" y="220" width="140" height="60" as="geometry" />
        </mxCell>
        <mxCell id="Y0aXFFnvP50x7_9zL7dY-29" value="" style="edgeStyle=orthogonalEdgeStyle;rounded=0;orthogonalLoop=1;jettySize=auto;html=1;entryX=0;entryY=0.5;entryDx=0;entryDy=0;" edge="1" parent="1" source="Y0aXFFnvP50x7_9zL7dY-26" target="Y0aXFFnvP50x7_9zL7dY-30">
          <mxGeometry relative="1" as="geometry">
            <mxPoint x="473" y="359.9999999999999" as="targetPoint" />
            <Array as="points">
              <mxPoint x="577.0000000000001" y="360" />
              <mxPoint x="577.0000000000001" y="800" />
            </Array>
          </mxGeometry>
        </mxCell>
        <mxCell id="Y0aXFFnvP50x7_9zL7dY-31" value="True" style="edgeLabel;html=1;align=center;verticalAlign=middle;resizable=0;points=[];" vertex="1" connectable="0" parent="Y0aXFFnvP50x7_9zL7dY-29">
          <mxGeometry x="-0.8053" relative="1" as="geometry">
            <mxPoint as="offset" />
          </mxGeometry>
        </mxCell>
        <mxCell id="Y0aXFFnvP50x7_9zL7dY-33" value="" style="edgeStyle=orthogonalEdgeStyle;rounded=0;orthogonalLoop=1;jettySize=auto;html=1;exitX=1;exitY=0.5;exitDx=0;exitDy=0;" edge="1" parent="1" source="Y0aXFFnvP50x7_9zL7dY-26" target="Y0aXFFnvP50x7_9zL7dY-32">
          <mxGeometry relative="1" as="geometry">
            <mxPoint x="753.0000000000001" y="360" as="sourcePoint" />
            <Array as="points">
              <mxPoint x="767.0000000000001" y="360" />
            </Array>
          </mxGeometry>
        </mxCell>
        <mxCell id="Y0aXFFnvP50x7_9zL7dY-34" value="False" style="edgeLabel;html=1;align=center;verticalAlign=middle;resizable=0;points=[];" vertex="1" connectable="0" parent="Y0aXFFnvP50x7_9zL7dY-33">
          <mxGeometry x="-0.5883" y="1" relative="1" as="geometry">
            <mxPoint x="-1" y="35" as="offset" />
          </mxGeometry>
        </mxCell>
        <mxCell id="Y0aXFFnvP50x7_9zL7dY-26" value="bulletsInChamber &amp;gt;= chamberCapacity" style="rhombus;whiteSpace=wrap;html=1;" vertex="1" parent="1">
          <mxGeometry x="593.0000000000001" y="320" width="160" height="80" as="geometry" />
        </mxCell>
        <mxCell id="Y0aXFFnvP50x7_9zL7dY-30" value="end" style="ellipse;whiteSpace=wrap;html=1;" vertex="1" parent="1">
          <mxGeometry x="613.0000000000001" y="760" width="120" height="80" as="geometry" />
        </mxCell>
        <mxCell id="Y0aXFFnvP50x7_9zL7dY-36" value="" style="edgeStyle=orthogonalEdgeStyle;rounded=0;orthogonalLoop=1;jettySize=auto;html=1;" edge="1" parent="1" source="Y0aXFFnvP50x7_9zL7dY-32" target="Y0aXFFnvP50x7_9zL7dY-35">
          <mxGeometry relative="1" as="geometry" />
        </mxCell>
        <mxCell id="Y0aXFFnvP50x7_9zL7dY-32" value="bulletsToAdd = chamberCapacity - bulletsInChamber" style="whiteSpace=wrap;html=1;" vertex="1" parent="1">
          <mxGeometry x="707.0000000000001" y="440" width="120" height="60" as="geometry" />
        </mxCell>
        <mxCell id="Y0aXFFnvP50x7_9zL7dY-38" style="edgeStyle=orthogonalEdgeStyle;rounded=0;orthogonalLoop=1;jettySize=auto;html=1;" edge="1" parent="1" source="Y0aXFFnvP50x7_9zL7dY-35" target="Y0aXFFnvP50x7_9zL7dY-37">
          <mxGeometry relative="1" as="geometry" />
        </mxCell>
        <mxCell id="Y0aXFFnvP50x7_9zL7dY-35" value="result = bulletsInChamber + bulletsToAdd" style="whiteSpace=wrap;html=1;" vertex="1" parent="1">
          <mxGeometry x="707.0000000000001" y="540" width="120" height="60" as="geometry" />
        </mxCell>
        <mxCell id="Y0aXFFnvP50x7_9zL7dY-51" style="edgeStyle=orthogonalEdgeStyle;rounded=0;orthogonalLoop=1;jettySize=auto;html=1;entryX=1;entryY=0.5;entryDx=0;entryDy=0;" edge="1" parent="1" source="Y0aXFFnvP50x7_9zL7dY-37" target="Y0aXFFnvP50x7_9zL7dY-30">
          <mxGeometry relative="1" as="geometry" />
        </mxCell>
        <mxCell id="Y0aXFFnvP50x7_9zL7dY-37" value="bulletsInChamber = result" style="shape=document;whiteSpace=wrap;html=1;boundedLbl=1;" vertex="1" parent="1">
          <mxGeometry x="707.0000000000001" y="640" width="120" height="80" as="geometry" />
        </mxCell>
        <mxCell id="Y0aXFFnvP50x7_9zL7dY-54" value="" style="edgeStyle=orthogonalEdgeStyle;rounded=0;orthogonalLoop=1;jettySize=auto;html=1;entryX=0.5;entryY=0;entryDx=0;entryDy=0;" edge="1" parent="1" source="Y0aXFFnvP50x7_9zL7dY-52" target="Y0aXFFnvP50x7_9zL7dY-58">
          <mxGeometry relative="1" as="geometry">
            <mxPoint x="1009.97" y="130" as="targetPoint" />
          </mxGeometry>
        </mxCell>
        <mxCell id="Y0aXFFnvP50x7_9zL7dY-52" value="getIsTriggered()" style="ellipse;whiteSpace=wrap;html=1;" vertex="1" parent="1">
          <mxGeometry x="949.97" width="120" height="80" as="geometry" />
        </mxCell>
        <mxCell id="Y0aXFFnvP50x7_9zL7dY-56" style="edgeStyle=orthogonalEdgeStyle;rounded=0;orthogonalLoop=1;jettySize=auto;html=1;exitX=0;exitY=0.5;exitDx=0;exitDy=0;entryX=0.5;entryY=0;entryDx=0;entryDy=0;" edge="1" parent="1" source="Y0aXFFnvP50x7_9zL7dY-58" target="Y0aXFFnvP50x7_9zL7dY-60">
          <mxGeometry relative="1" as="geometry">
            <mxPoint x="931.94" y="160" as="sourcePoint" />
            <Array as="points">
              <mxPoint x="900.97" y="160" />
            </Array>
          </mxGeometry>
        </mxCell>
        <mxCell id="Y0aXFFnvP50x7_9zL7dY-57" value="True" style="edgeLabel;html=1;align=center;verticalAlign=middle;resizable=0;points=[];" vertex="1" connectable="0" parent="Y0aXFFnvP50x7_9zL7dY-56">
          <mxGeometry x="-0.4741" y="4" relative="1" as="geometry">
            <mxPoint x="-1" y="36" as="offset" />
          </mxGeometry>
        </mxCell>
        <mxCell id="Y0aXFFnvP50x7_9zL7dY-55" value="end" style="ellipse;whiteSpace=wrap;html=1;" vertex="1" parent="1">
          <mxGeometry x="949.97" y="340" width="120" height="80" as="geometry" />
        </mxCell>
        <mxCell id="Y0aXFFnvP50x7_9zL7dY-61" value="" style="edgeStyle=orthogonalEdgeStyle;rounded=0;orthogonalLoop=1;jettySize=auto;html=1;entryX=1;entryY=0.5;entryDx=0;entryDy=0;" edge="1" parent="1" source="Y0aXFFnvP50x7_9zL7dY-58" target="Y0aXFFnvP50x7_9zL7dY-55">
          <mxGeometry relative="1" as="geometry">
            <mxPoint x="1120.97" y="390" as="targetPoint" />
            <Array as="points">
              <mxPoint x="1120.97" y="160" />
              <mxPoint x="1120.97" y="380" />
            </Array>
          </mxGeometry>
        </mxCell>
        <mxCell id="Y0aXFFnvP50x7_9zL7dY-62" value="False" style="edgeLabel;html=1;align=center;verticalAlign=middle;resizable=0;points=[];container=0;" vertex="1" connectable="0" parent="Y0aXFFnvP50x7_9zL7dY-61">
          <mxGeometry x="-0.1481" y="-3" relative="1" as="geometry">
            <mxPoint x="3" y="-58" as="offset" />
          </mxGeometry>
        </mxCell>
        <mxCell id="Y0aXFFnvP50x7_9zL7dY-58" value="isTriggered" style="rhombus;whiteSpace=wrap;html=1;" vertex="1" parent="1">
          <mxGeometry x="929.97" y="120" width="160" height="80" as="geometry" />
        </mxCell>
        <mxCell id="Y0aXFFnvP50x7_9zL7dY-66" style="edgeStyle=orthogonalEdgeStyle;rounded=0;orthogonalLoop=1;jettySize=auto;html=1;entryX=0;entryY=0.5;entryDx=0;entryDy=0;" edge="1" parent="1" source="Y0aXFFnvP50x7_9zL7dY-60" target="Y0aXFFnvP50x7_9zL7dY-55">
          <mxGeometry relative="1" as="geometry" />
        </mxCell>
        <mxCell id="Y0aXFFnvP50x7_9zL7dY-60" value="shoot()" style="whiteSpace=wrap;html=1;fillColor=#b1ddf0;strokeColor=#10739e;" vertex="1" parent="1">
          <mxGeometry x="840" y="240" width="120" height="60" as="geometry" />
        </mxCell>
      </root>
    </mxGraphModel>
  </diagram>
</mxfile>
